<svg id="contract_doc" xmlns="http://www.w3.org/2000/svg" width="43.027" height="51.632" viewBox="0 0 43.027 51.632">
  <path id="Path_5" data-name="Path 5" d="M46.624,13.7,35.265,2.344A1.076,1.076,0,0,0,34.4,2h0a1.172,1.172,0,0,0-1.2,1.2v9.121a3.453,3.453,0,0,0,3.442,3.442h9.121a1.172,1.172,0,0,0,1.2-1.2h0a1.076,1.076,0,0,0-.344-.86Z" transform="translate(-3.943 -1.998)" fill="#08107b"/>
  <path id="Path_6" data-name="Path 6" d="M47.3,20.931H35.257a5.174,5.174,0,0,1-5.163-5.163V3.721A1.721,1.721,0,0,0,28.373,2H11.163A5.174,5.174,0,0,0,6,7.163v41.3a5.174,5.174,0,0,0,5.163,5.163h32.7a5.174,5.174,0,0,0,5.163-5.163V22.652A1.721,1.721,0,0,0,47.3,20.931Zm-35.28-8.089,4.216-.6c.086,0,.258-.086.258-.172L18.391,8.2a.4.4,0,0,1,.688,0l1.893,3.872c.086.086.172.172.258.172l4.216.6c.258.086.43.43.172.6l-3.1,3.012c-.086.086-.086.172-.086.344l.688,4.216a.333.333,0,0,1-.516.344l-3.786-1.979a.258.258,0,0,0-.344,0l-3.786,1.979a.333.333,0,0,1-.516-.344l.688-4.216a.516.516,0,0,0-.086-.344l-3.1-3.012C11.593,13.272,11.765,12.928,12.023,12.842ZM38.7,41.583A1.721,1.721,0,0,1,36.978,43.3H14.6a1.721,1.721,0,0,1-1.721-1.721V39.862A1.721,1.721,0,0,1,14.6,38.141H36.978A1.721,1.721,0,0,1,38.7,39.862Zm3.442-10.326a1.721,1.721,0,0,1-1.721,1.721H14.6a1.721,1.721,0,0,1-1.721-1.721V29.536A1.721,1.721,0,0,1,14.6,27.815H40.42a1.721,1.721,0,0,1,1.721,1.721Z" transform="translate(-6 -1.998)" fill="#08107b"/>
</svg>
