<svg xmlns="http://www.w3.org/2000/svg" width="63.892" height="43.67" viewBox="0 0 63.892 43.67">
  <path id="employee_contact" d="M77.846,29.7H26.754A6.454,6.454,0,0,0,20.3,36.154V66.916a6.454,6.454,0,0,0,6.454,6.454H77.738a6.454,6.454,0,0,0,6.454-6.454V36.154A6.594,6.594,0,0,0,77.846,29.7ZM40.306,35.508a8.175,8.175,0,1,1-8.175,8.175,8.175,8.175,0,0,1,8.175-8.175Zm10.541,30.44H29.873c-1.829,0-2.151-1.183-2.151-1.721A12.316,12.316,0,0,1,39.984,53.579h.43A12.316,12.316,0,0,1,52.676,64.227C53,64.765,52.676,65.948,50.848,65.948Zm24.847-7.422a2.151,2.151,0,0,1-2.151,2.151H64.078a2.151,2.151,0,0,1-2.151-2.151V55.3a2.151,2.151,0,0,1,2.151-2.151h9.465A2.151,2.151,0,0,1,75.694,55.3Zm0-11.832a2.151,2.151,0,0,1-2.151,2.151H57.624a2.151,2.151,0,0,1-2.151-2.151V43.468a2.151,2.151,0,0,1,2.151-2.151H73.543a2.151,2.151,0,0,1,2.151,2.151Z" transform="translate(-20.3 -29.7)" fill="#08107b"/>
</svg>
