<svg id="page" xmlns="http://www.w3.org/2000/svg" width="43.025" height="51.63" viewBox="0 0 43.025 51.63">
  <g id="Group_1" data-name="Group 1" transform="translate(0 0)">
    <path id="Path_3" data-name="Path 3" d="M47.3,20.285H35.257a4.182,4.182,0,0,1-4.518-4.518V3.721A1.7,1.7,0,0,0,29.018,2H11.163A5.235,5.235,0,0,0,6,7.163v41.3a5.235,5.235,0,0,0,5.163,5.163h32.7a5.235,5.235,0,0,0,5.163-5.163V22.006A1.7,1.7,0,0,0,47.3,20.285Z" transform="translate(-6 -2)" fill="#08107b"/>
  </g>
  <g id="Group_2" data-name="Group 2" transform="translate(29.042 0)">
    <path id="Path_4" data-name="Path 4" d="M46.66,13.724l-11.4-11.4A1.5,1.5,0,0,0,34.291,2h0A1.292,1.292,0,0,0,33,3.183v9.143a3.77,3.77,0,0,0,3.657,3.657H45.8a1.292,1.292,0,0,0,1.183-1.291h0A1.5,1.5,0,0,0,46.66,13.724Z" transform="translate(-33 -2)" fill="#08107b"/>
  </g>
</svg>
