<svg id="fulfillment_order" xmlns="http://www.w3.org/2000/svg" width="64.51" height="64.469" viewBox="0 0 64.51 64.469">
  <g id="Group_3" data-name="Group 3" transform="translate(0 0)">
    <path id="Path_14" data-name="Path 14" d="M50,66.247a7.427,7.427,0,0,1,2.689.43l-14.521-41.2L36.882,21.5a2.035,2.035,0,0,0-2.689-1.291L21.5,24.3a2.035,2.035,0,0,0-1.291,2.689l1.291,3.98a2.035,2.035,0,0,0,2.689,1.291l6.561-2.151L44.089,67.86A12.161,12.161,0,0,1,50,66.247Zm22.7-9.788L59.363,61.191a2.557,2.557,0,0,1-3.334-1.613L51.3,46.24a2.557,2.557,0,0,1,1.613-3.334l13.338-4.733a2.557,2.557,0,0,1,3.334,1.613l4.733,13.338A2.6,2.6,0,0,1,72.7,56.459ZM60.116,34.516l-9.035,3.119a2.557,2.557,0,0,1-3.334-1.613l-3.119-9.035a2.557,2.557,0,0,1,1.613-3.334l9.035-3.119a2.557,2.557,0,0,1,3.334,1.613l3.119,9.035A2.635,2.635,0,0,1,60.116,34.516ZM84.425,64.848l-1.4-3.98a2.035,2.035,0,0,0-2.689-1.291l-24.417,8.5a10.8,10.8,0,0,1,4.84,7.422l22.48-7.637A2.394,2.394,0,0,0,84.425,64.848ZM50,69.689a7.422,7.422,0,1,0,7.422,7.422A7.507,7.507,0,0,0,50,69.689Z" transform="translate(-20.063 -20.063)" fill="#08107b"/>
  </g>
</svg>
