<svg id="shield" xmlns="http://www.w3.org/2000/svg" width="51.63" height="51.683" viewBox="0 0 51.63 51.683">
  <path id="Path_1" data-name="Path 1" d="M4.929,14.911H50.535a1.7,1.7,0,0,0,1.613-2.151,33.526,33.526,0,0,0-4.625-9.681,1.579,1.579,0,0,0-2.474-.215,11.611,11.611,0,0,1-7.96,3.012,11.624,11.624,0,0,1-8.282-3.442,1.688,1.688,0,0,0-2.366,0,11.624,11.624,0,0,1-8.282,3.442A11.808,11.808,0,0,1,10.2,2.864a1.72,1.72,0,0,0-2.474.215A29.862,29.862,0,0,0,3.1,12.76,1.962,1.962,0,0,0,4.929,14.911Z" transform="translate(-1.917 -1.95)" fill="#08107b"/>
  <path id="Path_2" data-name="Path 2" d="M53.63,20.506A1.531,1.531,0,0,0,51.909,19H3.721A1.531,1.531,0,0,0,2,20.506v.323C2,36.963,13.186,50.3,27.815,52.344,42.443,50.3,53.63,36.963,53.63,20.936Z" transform="translate(-2 -0.661)" fill="#08107b"/>
</svg>
