<svg xmlns="http://www.w3.org/2000/svg" width="51.683" height="51.63" viewBox="0 0 51.683 51.63">
  <path id="custom_apps" d="M52.988,12.971a.915.915,0,0,0-1.506-.323L42.77,21.361a1.688,1.688,0,0,1-2.366,0L34.272,15.23a1.688,1.688,0,0,1,0-2.366l8.82-8.713a1,1,0,0,0-.323-1.506A17.138,17.138,0,0,0,38.145,2,15.415,15.415,0,0,0,22.763,19.21,16.294,16.294,0,0,0,23.839,23.3L3.725,43.3a5.973,5.973,0,0,0,0,8.5,6.219,6.219,0,0,0,4.3,1.829,6.219,6.219,0,0,0,4.3-1.829L32.336,31.795a17.606,17.606,0,0,0,4.087,1.076,15.415,15.415,0,0,0,17.21-15.381A15.288,15.288,0,0,0,52.988,12.971Z" transform="translate(-1.95 -2)" fill="#08107b"/>
</svg>
