<svg id="custom57" xmlns="http://www.w3.org/2000/svg" width="58.083" height="62.305" viewBox="0 0 58.083 62.305">
  <path id="Path_11" data-name="Path 11" d="M53,53.651V79.9a1.1,1.1,0,0,0,1.613.968c5.163-2.9,20.867-11.832,20.867-11.832a6.6,6.6,0,0,0,3.334-5.7V39.776a1.1,1.1,0,0,0-1.613-.968L54.076,51.823A2.218,2.218,0,0,0,53,53.651Z" transform="translate(-20.731 -18.667)" fill="#08107b"/>
  <path id="Path_12" data-name="Path 12" d="M52.824,47.745,76.058,34.73a1.022,1.022,0,0,0,0-1.829C70.895,30,55.083,20.962,55.083,20.962a6.708,6.708,0,0,0-6.669,0S32.6,29.89,27.44,32.9a1.022,1.022,0,0,0,0,1.829L50.673,47.745A2.511,2.511,0,0,0,52.824,47.745Z" transform="translate(-22.707 -20.075)" fill="#08107b"/>
  <path id="Path_13" data-name="Path 13" d="M47.739,51.826,24.613,38.811A1.07,1.07,0,0,0,23,39.779V63.227a6.6,6.6,0,0,0,3.334,5.7S42.038,77.856,47.2,80.76a1.07,1.07,0,0,0,1.613-.967V53.654A2.218,2.218,0,0,0,47.739,51.826Z" transform="translate(-23 -18.67)" fill="#08107b"/>
</svg>
