<svg id="education" xmlns="http://www.w3.org/2000/svg" width="64.241" height="40.845" viewBox="0 0 64.241 40.845">
  <path id="Path_7" data-name="Path 7" d="M52.144,52.586a12.589,12.589,0,0,1-4.733-1.076c-8.5-2.8-16.995-5.593-25.385-8.5a5.8,5.8,0,0,1-1.4-.753.808.808,0,0,1,0-1.4,3.974,3.974,0,0,1,1.506-.753c9.035-2.689,18.07-5.378,27.106-8.175a10.291,10.291,0,0,1,6.239,0c8.928,2.689,17.963,5.378,26.89,8.067a10.855,10.855,0,0,1,1.613.753.828.828,0,0,1,0,1.506,3.635,3.635,0,0,1-1.291.645c-8.928,3.012-17.963,6.023-27,8.928A8.105,8.105,0,0,1,52.144,52.586Z" transform="translate(-20.225 -31.45)" fill="#08107b"/>
  <path id="Path_8" data-name="Path 8" d="M33.413,51.5c-1.291-.323-1.613.538-1.613,1.183V62.906A3.5,3.5,0,0,0,32.983,65.6a5.911,5.911,0,0,0,.968.753,21.578,21.578,0,0,0,7.207,3.119,39.073,39.073,0,0,0,15.381.968,34.862,34.862,0,0,0,9.788-2.689,10.984,10.984,0,0,0,3.657-2.474,2.533,2.533,0,0,0,.86-2.259c.108-3.227.108-6.561.108-9.9,0-1.829-1.291-1.613-1.829-1.506-4.733,1.613-9.573,3.119-14.306,4.733a11.1,11.1,0,0,1-6.992,0Z" transform="translate(-19.35 -29.939)" fill="#08107b"/>
  <path id="Path_9" data-name="Path 9" d="M75.107,48.644c-.43.108-.538.323-.538.753v9.035a3.141,3.141,0,0,1-.215.968c-.645,1.613-1.4,3.227-1.936,4.84a4.024,4.024,0,0,0,.86,4.195,5.638,5.638,0,0,0,1.183,1.076,4.244,4.244,0,0,0,1.613.645,3.163,3.163,0,0,0,2.366-.968l.968-.968a4.328,4.328,0,0,0,.645-3.657,20.758,20.758,0,0,0-2.044-5.055,2.075,2.075,0,0,1-.323-1.076v-9.9c0-.645-.538-.538-.753-.43Z" transform="translate(-16.298 -30.197)" fill="#08107b"/>
</svg>
